<svg xmlns="http://www.w3.org/2000/svg" width="32" height="19" viewBox="0 0 32 19">
  <g fill="none" fill-rule="evenodd">
    <path fill="#FFF" d="M10.8053997,0.339575595 C4.3921046,9.01187351 1.04805308,14.2493388 0.773245175,16.0519715 C3.00627075,16.9406483 6.57717807,18.3263902 8.11507345,18.7452633 C8.64968827,17.1425294 9.78737277,14.9614318 11.528127,12.2019707 L16.0125538,18.7860825 L20.439515,12.2019707 L23.8731339,18.7452633 C27.3527692,17.5618084 29.7978824,16.6640444 31.2084734,16.0519715 C30.435833,13.3103881 27.077846,8.07292282 21.1345124,0.339575595 L15.9862288,6.64453064 L10.8053997,0.339575595 Z"/>
    <path fill="#1E88E5" d="M15.9876029,8.21169625 C15.9876029,8.21169625 13.0797193,4.61636197 10.8590309,2 C9.58394813,3.23921338 2.8442259,13.3771663 2,15.4840698 C4.50600308,16.445214 5.88864138,17 7.49721854,17.4840698 C8.39743725,14.9545561 11.5067007,10.4473703 11.5067007,10.4473703 L16,17 L20.4650598,10.4473703 C20.4650598,10.4473703 23.1614164,14.366717 24.4521908,17.4840698 C25.900955,17 28.8416388,15.9360075 30,15.4840698 C29.2756687,13.9022133 22.3108512,3.00909162 21.1127578,2 C19.8474949,3.53610424 15.9876029,8.21169625 15.9876029,8.21169625 Z"/>
  </g>
</svg>
