<svg xmlns="http://www.w3.org/2000/svg" width="31" height="19" viewBox="0 0 31 19">
  <g fill="none" fill-rule="evenodd">
    <path fill="#FFF" d="M10.0321546,0.339575595 C3.61885942,9.01187351 0.2748079,14.2493388 0,16.0519715 C2.23302558,16.9406483 5.80393289,18.3263902 7.34182828,18.7452633 C7.87644309,17.1425294 9.0141276,14.9614318 10.7548818,12.2019707 L15.2393086,18.7860825 L19.6662699,12.2019707 L23.0998887,18.7452633 C26.5795241,17.5618084 29.0246372,16.6640444 30.4352282,16.0519715 C29.6625879,13.3103881 26.3046009,8.07292282 20.3612672,0.339575595 L15.2129837,6.64453064 L10.0321546,0.339575595 Z"/>
    <path fill="#F82723" d="M15.2143577,8.21169625 C15.2143577,8.21169625 12.3064741,4.61636197 10.0857857,2 C8.81070295,3.23921338 2.07098072,13.3771663 1.22675482,15.4840698 C3.7327579,16.445214 5.11539621,17 6.72397337,17.4840698 C7.62419207,14.9545561 10.7334555,10.4473703 10.7334555,10.4473703 L15.2267548,17 L19.6918146,10.4473703 C19.6918146,10.4473703 22.3881712,14.366717 23.6789456,17.4840698 C25.1277098,17 28.0683936,15.9360075 29.2267548,15.4840698 C28.5024236,13.9022133 21.537606,3.00909162 20.3395126,2 C19.0742497,3.53610424 15.2143577,8.21169625 15.2143577,8.21169625 Z"/>
  </g>
</svg>
